<svg id="Layer_1" data-name="Layer 1" xmlns="http://www.w3.org/2000/svg" viewBox="0 0 128 128"><defs><style>.cls-1{fill:#a0a0a0;}.cls-2{fill:#fff;}.cls-3{fill:#5ebcb5;}</style></defs><title>ICON_2</title><path class="cls-1" d="M64,3a61,61,0,1,0,61,61A61,61,0,0,0,64,3Z"/><path class="cls-2" d="M64,5.5A58.5,58.5,0,1,0,122.5,64,58.5,58.5,0,0,0,64,5.5Z"/><path class="cls-3" d="M64,10.5A53.5,53.5,0,1,0,117.5,64,53.5,53.5,0,0,0,64,10.5Z"/><path class="cls-2" d="M103.38,52a5.16,5.16,0,0,0,0-7.27L94.62,36a5.16,5.16,0,0,0-7.27,0L55.92,67.39a5.16,5.16,0,0,1-7.27,0l-8-8a5.16,5.16,0,0,0-7.27,0l-8.77,8.77a5.16,5.16,0,0,0,0,7.27l24,24a5.2,5.2,0,0,0,7.31,0Z"/></svg>