<?xml version="1.0" standalone="no"?><!DOCTYPE svg PUBLIC "-//W3C//DTD SVG 1.1//EN" "http://www.w3.org/Graphics/SVG/1.1/DTD/svg11.dtd"><svg t="1501829425899" class="icon" style="" viewBox="0 0 1052 1024" version="1.1" xmlns="http://www.w3.org/2000/svg" p-id="21126" xmlns:xlink="http://www.w3.org/1999/xlink" width="205.46875" height="200"><defs><style type="text/css"></style></defs><path d="M526.222222 0A42.666667 42.666667 0 0 1 568.888889 42.666667v170.666666a42.666667 42.666667 0 0 1-85.333333 0v-170.666666A42.666667 42.666667 0 0 1 526.222222 0z m256 68.608a42.666667 42.666667 0 0 1 15.616 58.282667l-85.333333 147.797333a42.666667 42.666667 0 0 1-73.898667-42.666667l85.333334-147.797333a42.666667 42.666667 0 0 1 58.282666-15.644444zM969.614222 256a42.666667 42.666667 0 0 1-15.616 58.282667l-147.797333 85.333333a42.666667 42.666667 0 0 1-42.666667-73.898667l147.797334-85.333333A42.666667 42.666667 0 0 1 969.671111 256z m68.608 256a42.666667 42.666667 0 0 1-42.666666 42.666667h-170.666667a42.666667 42.666667 0 0 1 0-85.333334h170.666667a42.666667 42.666667 0 0 1 42.666666 42.666667z m-68.608 256a42.666667 42.666667 0 0 1-58.282666 15.616l-147.797334-85.333333a42.666667 42.666667 0 0 1 42.666667-73.898667l147.797333 85.333333A42.666667 42.666667 0 0 1 969.671111 768zM782.222222 955.392a42.666667 42.666667 0 0 1-58.282666-15.616l-85.333334-147.797333a42.666667 42.666667 0 0 1 73.898667-42.666667l85.333333 147.797333a42.666667 42.666667 0 0 1-15.616 58.311111zM526.222222 1024a42.666667 42.666667 0 0 1-42.666666-42.666667v-170.666666a42.666667 42.666667 0 0 1 85.333333 0v170.666666a42.666667 42.666667 0 0 1-42.666667 42.666667z m-256-68.608a42.666667 42.666667 0 0 1-15.616-58.282667l85.333334-147.797333a42.666667 42.666667 0 0 1 73.898666 42.666667l-85.333333 147.797333a42.666667 42.666667 0 0 1-58.282667 15.644444zM82.830222 768a42.666667 42.666667 0 0 1 15.616-58.282667l147.797334-85.333333a42.666667 42.666667 0 0 1 42.666666 73.898667l-147.797333 85.333333A42.666667 42.666667 0 0 1 82.773333 768zM14.222222 512A42.666667 42.666667 0 0 1 56.888889 469.333333h170.666667a42.666667 42.666667 0 0 1 0 85.333334H56.888889A42.666667 42.666667 0 0 1 14.222222 512z m68.608-256a42.666667 42.666667 0 0 1 58.282667-15.616l147.797333 85.333333a42.666667 42.666667 0 0 1-42.666666 73.898667l-147.797334-85.333333A42.666667 42.666667 0 0 1 82.773333 256zM270.222222 68.608a42.666667 42.666667 0 0 1 58.282667 15.616l85.333333 147.797333a42.666667 42.666667 0 0 1-73.898666 42.666667l-85.333334-147.797333A42.666667 42.666667 0 0 1 270.222222 68.551111z" fill="#D8D8D8" p-id="21127"></path></svg>