<?xml version="1.0" standalone="no"?><!DOCTYPE svg PUBLIC "-//W3C//DTD SVG 1.1//EN" "http://www.w3.org/Graphics/SVG/1.1/DTD/svg11.dtd"><svg t="1501568420685" class="icon" style="" viewBox="0 0 1025 1024" version="1.1" xmlns="http://www.w3.org/2000/svg" p-id="4043" id="mx_n_1501568420686" xmlns:xlink="http://www.w3.org/1999/xlink" width="200.1953125" height="200"><defs><style type="text/css"></style></defs><path d="M486.347926 25.717555C486.347926 11.514266 497.734909 0 512.002096 0 526.170508 0 537.656266 11.321549 537.656266 25.717555L537.656266 282.13248C537.656266 296.33577 526.269283 307.850035 512.002096 307.850035 497.833684 307.850035 486.347926 296.528282 486.347926 282.13248L486.347926 25.717555ZM809.745067 124.749824C818.874867 113.869414 834.998975 112.368435 845.928271 121.539174 856.781893 130.646426 858.303086 146.702336 849.049546 157.730202L684.229291 354.155315C675.099491 365.035725 658.975382 366.536704 648.046087 357.365965 637.192465 348.258714 635.671272 332.203008 644.924833 321.174938L809.745067 124.749824ZM993.82498 408.48855C1007.812636 406.022144 1021.129203 415.23671 1023.606689 429.287219 1026.066992 443.240448 1016.911838 456.517632 1002.734579 459.017421L750.215298 503.543398C736.227642 506.009805 722.911055 496.795238 720.433589 482.74473 717.973265 468.791706 727.12844 455.514317 741.305699 453.014528L993.82498 408.48855ZM952.454581 744.169472C964.755135 751.271117 969.033203 766.889574 961.899609 779.245363 954.815413 791.515546 939.267694 795.8016 926.800412 788.603699L704.7387 660.396237C692.438166 653.294592 688.160079 637.676134 695.293672 625.320346 702.377889 613.050163 717.925588 608.764109 730.39287 615.96201L952.454581 744.169472ZM704.991587 974.723482C709.849464 988.070298 703.087275 1002.784563 689.680494 1007.664333 676.366548 1012.510106 661.70123 1005.799629 656.77753 992.271974L569.078504 751.320883C564.220648 737.973862 570.982817 723.259597 584.389598 718.379827 597.703544 713.534054 612.368862 720.244531 617.292561 733.77239L704.991587 974.723482ZM367.226662 992.271974C362.368806 1005.61879 347.73046 1012.543898 334.323699 1007.664333 321.009733 1002.818355 314.088885 988.251136 319.012605 974.723482L406.71161 733.77239C411.569487 720.42537 426.207833 713.500262 439.614594 718.379827 452.92854 723.225805 459.849407 737.793024 454.925688 751.320883L367.226662 992.271974ZM97.203781 788.603699C84.903226 795.705344 69.238177 791.601152 62.104583 779.245363 55.020367 766.975181 59.082329 751.367373 71.549611 744.169472L293.611322 615.96201C305.911856 608.860365 321.576926 612.964557 328.71052 625.320346 335.794716 637.590528 331.732774 653.198336 319.265492 660.396237L97.203781 788.603699ZM21.269614 459.017421C7.281958 456.551014-2.079962 443.337728 0.397503 429.287219 2.857827 415.33399 16.001953 405.988762 30.179212 408.48855L282.698493 453.014528C296.686149 455.480934 306.048069 468.694426 303.570603 482.74473 301.110279 496.697958 287.966154 506.043187 273.788894 503.543398L21.269614 459.017421ZM174.954646 157.730202C165.824847 146.849792 167.146626 130.709914 178.075921 121.539174 188.929543 112.431923 205.005565 113.721958 214.259125 124.749824L379.079359 321.174938C388.209159 332.055347 386.8874 348.195226 375.958105 357.365965 365.104463 366.473216 349.028462 365.183386 339.774901 354.155315L174.954646 157.730202Z" p-id="4044" fill="#ffffff"></path></svg>